<?xml version="1.0" standalone="no"?>
<!DOCTYPE svg PUBLIC "-//W3C//DTD SVG 20010904//EN"
 "http://www.w3.org/TR/2001/REC-SVG-20010904/DTD/svg10.dtd">
<svg version="1.0" xmlns="http://www.w3.org/2000/svg"
 width="450.000000pt" height="300.000000pt" viewBox="0 0 450.000000 300.000000"
 preserveAspectRatio="xMidYMid meet">
<metadata>
Created by potrace 1.10, written by Peter Selinger 2001-2011
</metadata>
<g transform="translate(0.000000,300.000000) scale(0.050000,-0.050000)"
fill="#000000" stroke="none">
<path d="M5480 5897 c0 -19 68 -23 374 -26 112 0 196 7 187 16 -18 18 -108 23
-281 15 -60 -3 -114 -4 -120 -3 -44 13 -160 11 -160 -2z"/>
<path d="M6973 5792 c-40 -33 -50 -51 -33 -62 15 -9 43 6 72 37 80 86 55 102
-39 25z"/>
<path d="M6655 5666 c-30 -5 -55 -17 -55 -27 0 -29 88 -22 131 10 41 31 33 33
-76 17z"/>
<path d="M6892 5644 c-8 -13 -32 -24 -53 -24 -22 0 -39 -9 -39 -20 0 -24 60
-26 97 -2 16 10 24 29 19 44 -7 20 -12 20 -24 2z"/>
<path d="M8280 5620 c0 -11 -12 -20 -26 -20 -40 0 -112 -59 -74 -59 17 -1 57
21 90 48 33 27 49 50 35 50 -14 1 -25 -8 -25 -19z"/>
<path d="M7849 5377 c-82 -130 -173 -261 -204 -293 -14 -15 -25 -33 -25 -40 0
-8 -28 -43 -61 -79 -34 -36 -54 -65 -46 -65 8 0 49 38 90 85 62 69 76 77 77
45 0 -33 4 -35 19 -11 12 19 11 35 -2 43 -19 11 102 210 145 238 18 13 62 123
53 132 -4 4 -25 -21 -46 -55z"/>
<path d="M180 5300 c40 -26 166 -26 150 0 -7 11 -50 20 -96 20 -62 -1 -76 -6
-54 -20z"/>
<path d="M400 5280 c-45 -14 -46 -16 -7 -18 23 -1 72 -7 110 -13 63 -11 65
-10 28 20 -42 34 -56 35 -131 11z"/>
<path d="M7831 5218 c-72 -81 -52 -97 27 -20 34 33 54 65 44 70 -9 6 -41 -17
-71 -50z"/>
<path d="M1150 5140 c7 -11 26 -20 42 -20 17 0 57 -14 89 -31 67 -34 74 -27
25 31 -36 41 -181 60 -156 20z"/>
<path d="M4906 5078 c-35 -10 -70 -29 -78 -42 -10 -16 -3 -18 24 -8 21 9 60
20 87 25 26 5 62 17 80 27 42 25 -24 24 -113 -2z"/>
<path d="M3435 4766 c36 -5 90 -5 120 0 30 4 1 8 -65 8 -66 0 -91 -4 -55 -8z"/>
<path d="M7467 4735 c-22 -25 -61 -79 -85 -120 -25 -41 -54 -75 -64 -75 -10 0
-18 -11 -18 -26 0 -14 -25 -54 -55 -88 -69 -80 -185 -240 -185 -256 0 -18 91
77 94 98 2 10 10 23 19 30 10 6 42 45 72 85 30 41 69 88 86 105 18 18 24 32
15 33 -9 0 0 9 19 21 19 11 35 29 35 40 0 11 29 56 63 99 68 84 71 129 4 54z"/>
<path d="M5820 4510 c0 -16 -9 -30 -20 -30 -11 0 -20 -13 -20 -30 0 -40 20
-38 52 5 32 42 36 85 8 85 -11 0 -20 -13 -20 -30z"/>
<path d="M959 4469 c-15 -18 -54 -44 -88 -59 -40 -18 -49 -27 -25 -28 40 -2
194 80 194 103 0 27 -54 16 -81 -16z"/>
<path d="M1370 4395 c-141 -24 -374 -98 -410 -130 -20 -18 8 -14 80 12 135 48
253 70 425 80 56 3 75 32 30 47 -14 4 -70 0 -125 -9z"/>
<path d="M620 4370 c-40 -48 -14 -52 51 -9 52 34 54 39 16 39 -23 0 -53 -14
-67 -30z"/>
<path d="M1735 4265 c-41 -4 -75 -14 -75 -22 0 -18 172 -18 190 1 8 7 29 9 47
3 28 -9 29 -8 3 11 -16 12 -43 20 -60 18 -16 -1 -64 -6 -105 -11z"/>
<path d="M7909 4258 c-8 -13 -43 -17 -86 -10 l-73 12 60 -27 c62 -27 170 -9
170 29 0 25 -55 22 -71 -4z"/>
<path d="M1960 4180 c0 -11 13 -20 29 -20 18 0 25 -12 18 -30 -7 -19 0 -30 20
-30 53 0 55 34 4 68 -58 37 -71 40 -71 12z"/>
<path d="M324 3969 c-24 -18 -69 -45 -99 -60 -30 -16 -41 -29 -25 -29 17 0 57
18 90 40 33 22 75 40 94 40 18 0 39 9 46 20 19 31 -56 23 -106 -11z"/>
<path d="M35 3926 c-59 -15 -39 -36 35 -36 39 0 67 9 63 20 -7 23 -48 30 -98
16z"/>
<path d="M1451 3730 c-29 -23 -31 -30 -9 -30 17 0 40 10 52 22 20 20 93 -5
126 -44 10 -11 140 -78 153 -78 4 0 7 9 7 20 0 11 -10 20 -23 20 -13 0 -53 23
-89 50 -84 64 -166 80 -217 40z"/>
<path d="M8372 3680 c-39 -44 -72 -96 -71 -115 1 -28 8 -25 35 14 19 27 59 75
89 106 58 60 66 75 37 75 -9 0 -50 -36 -90 -80z"/>
<path d="M740 3660 c-56 -12 -42 -15 70 -16 95 -1 127 4 100 16 -47 20 -75 20
-170 0z"/>
<path d="M3351 3653 c-21 -15 -31 -37 -23 -49 9 -15 26 -10 53 17 62 62 41 84
-30 32z"/>
<path d="M8780 3620 c-14 -33 -32 -60 -40 -60 -9 0 -21 -13 -27 -30 -23 -59
24 -29 70 45 61 99 64 105 41 105 -10 0 -30 -27 -44 -60z"/>
<path d="M1800 3583 c0 -10 28 -24 63 -30 106 -22 131 -13 47 18 -94 33 -110
35 -110 12z"/>
<path d="M5091 3549 c-33 -50 -32 -51 4 -32 61 33 97 83 60 83 -17 0 -46 -23
-64 -51z"/>
<path d="M8265 3495 c-25 -30 -56 -171 -34 -150 19 18 70 161 61 170 -3 3 -16
-6 -27 -20z"/>
<path d="M80 3314 c0 -15 32 -42 70 -60 90 -43 90 -17 0 41 -49 32 -70 37 -70
19z"/>
<path d="M2145 3264 c-35 -19 -64 -41 -65 -49 0 -28 76 -15 87 15 7 17 28 30
47 30 20 0 50 9 66 20 54 35 -64 20 -135 -16z"/>
<path d="M7180 3234 c0 -18 32 -64 71 -103 99 -99 118 -90 30 15 -101 121
-101 121 -101 88z"/>
<path d="M335 3204 c-120 -10 -86 -40 45 -40 66 0 116 7 110 16 -14 22 -69 31
-155 24z"/>
<path d="M900 3156 c0 -27 43 -40 91 -28 73 19 59 50 -21 46 -38 -2 -70 -10
-70 -18z"/>
<path d="M2550 3159 c-31 -15 -26 -16 23 -8 35 6 69 2 76 -10 7 -11 29 -21 47
-21 36 -1 213 -85 314 -148 219 -139 244 -158 352 -257 21 -19 38 -28 38 -18
0 9 -16 30 -35 48 -19 18 -71 67 -115 109 -44 43 -109 89 -145 104 -36 15 -65
38 -65 52 0 14 -29 31 -65 38 -36 7 -111 34 -167 60 -128 60 -207 75 -258 51z"/>
<path d="M8086 3120 c-13 -49 -45 -53 -47 -5 -2 30 -4 29 -18 -5 -25 -64 -3
-98 39 -60 34 31 67 110 46 110 -5 0 -14 -18 -20 -40z"/>
<path d="M7960 2968 c0 -19 -6 -29 -13 -22 -21 21 -67 -27 -67 -68 0 -68 66
-36 98 47 13 34 13 58 1 65 -10 7 -19 -3 -19 -22z"/>
<path d="M1975 2897 c-77 -28 -69 -58 10 -36 36 11 67 19 70 19 3 0 5 9 5 20
0 24 -12 23 -85 -3z"/>
<path d="M7450 2895 c51 -31 215 -74 235 -62 35 22 11 47 -35 35 -28 -7 -62
-4 -75 7 -14 11 -56 25 -95 32 -61 11 -65 9 -30 -12z"/>
<path d="M4559 2807 c-71 -51 -132 -96 -136 -99 -12 -9 52 -68 73 -68 10 0 43
19 73 43 60 47 143 53 213 16 42 -23 -18 115 -81 186 -7 8 -71 -27 -142 -78z"/>
<path d="M7835 2771 c-19 -27 -35 -58 -35 -70 0 -42 31 -19 65 49 39 80 22 92
-30 21z"/>
<path d="M2020 2699 c28 -21 61 -48 74 -59 30 -25 46 -25 46 -2 0 20 -124 102
-152 101 -10 0 5 -18 32 -40z"/>
<path d="M6138 2545 c-89 -107 -173 -221 -185 -252 l-23 -58 -153 13 c-191 16
-264 41 -297 101 -38 73 -222 223 -347 284 -173 85 -429 1 -543 -177 -72 -113
-75 -114 -106 -28 -39 105 -142 237 -176 224 -79 -30 -430 -298 -409 -312 18
-10 10 -47 -28 -136 -65 -157 -64 -211 8 -356 126 -252 294 -355 470 -288 46
17 51 14 51 -28 0 -41 -12 -48 -105 -61 -58 -7 -160 -36 -227 -62 -145 -58
-160 -60 -173 -14 -5 19 -100 169 -212 333 -187 275 -214 332 -161 332 11 0
15 -8 9 -19 -7 -10 9 -17 35 -15 49 4 200 147 184 174 -5 9 5 21 23 28 18 7
28 18 21 24 -10 11 -230 -126 -319 -198 -68 -55 -43 -140 103 -358 143 -214
245 -334 287 -339 57 -7 -228 -33 -380 -35 l-165 -2 0 126 c0 160 -16 180
-210 266 -369 164 -628 93 -978 -268 -63 -66 -162 -144 -219 -175 -199 -106
-233 -157 -282 -417 -56 -297 -197 -502 -336 -488 -88 9 -114 60 -59 119 23
26 79 86 123 134 45 49 82 80 82 70 7 -88 63 201 63 325 0 201 -41 305 -181
453 -101 107 -135 189 -148 355 -14 187 -325 182 -960 -14 -23 -7 -35 0 -35
19 0 41 -91 201 -140 245 -40 36 -40 35 -40 -62 0 -104 19 -132 120 -183 l50
-26 -50 8 c-27 4 -66 14 -85 23 -27 11 -35 5 -35 -28 0 -23 7 -42 15 -42 8 0
35 -30 60 -66 84 -124 416 -197 708 -156 152 22 230 20 195 -4 -4 -3 -46 -30
-93 -60 -133 -86 -111 -172 63 -245 58 -24 71 -38 55 -54 -39 -39 -26 -55 43
-55 131 0 171 -190 82 -380 -114 -240 -104 -326 50 -463 88 -80 282 -173 282
-137 0 9 22 21 48 28 73 18 129 127 175 345 23 109 49 215 58 237 8 22 26 68
39 103 28 76 80 125 200 192 188 104 220 126 220 148 0 13 27 36 60 50 33 15
60 37 60 50 0 26 172 87 218 76 191 -45 269 -69 345 -106 l90 -43 38 -175 c57
-255 46 -251 654 -238 l475 10 33 -63 c22 -43 25 -65 10 -70 -13 -4 -23 -18
-23 -32 0 -52 -44 -71 -93 -38 -26 17 -47 23 -47 13 0 -9 -8 -6 -17 8 -8 14
-52 29 -96 33 -45 4 -99 17 -120 28 -40 22 -108 20 -228 -4 -51 -11 -107 -3
-198 28 -144 48 -183 35 -145 -49 23 -51 162 -151 211 -151 69 0 154 -45 133
-70 -17 -21 -7 -21 54 0 71 25 77 24 93 -17 l17 -43 17 45 c15 37 25 42 54 26
19 -11 143 -33 275 -49 132 -16 267 -43 300 -61 33 -17 74 -31 91 -31 16 0 88
-58 159 -130 142 -143 235 -188 312 -152 26 12 68 30 93 39 150 59 209 94 200
120 -9 22 -4 23 29 2 51 -32 110 -12 93 31 -13 34 33 87 109 128 25 13 44 43
45 68 0 44 1 44 43 -6 41 -49 42 -49 31 -5 -8 31 -2 45 17 45 15 0 28 14 28
30 0 17 7 30 17 30 9 0 28 22 43 50 30 56 113 117 159 116 17 0 42 8 55 18 16
13 32 6 50 -22 36 -59 56 -52 56 18 0 33 -9 60 -20 60 -11 0 -20 17 -20 39 0
21 -8 44 -18 50 -28 17 -40 119 -17 146 16 20 13 23 -12 13 -58 -22 -35 13 25
38 l58 24 -110 150 c-60 83 -140 184 -178 227 -37 42 -68 88 -68 102 0 64
-231 181 -406 207 l-104 15 116 65 c64 36 120 78 126 93 14 34 -170 297 -329
470 -84 91 -88 114 -30 160 29 22 64 41 78 41 74 0 278 -244 387 -464 68 -137
193 -299 282 -368 40 -30 83 -38 219 -38 l168 0 17 66 c14 54 25 64 57 54 48
-15 50 5 6 53 -22 24 -25 37 -9 37 13 0 19 9 13 19 -7 10 6 29 28 41 23 12 41
34 41 49 0 15 10 31 23 35 15 5 11 19 -10 40 -116 116 106 101 437 -29 121
-47 274 -103 340 -125 66 -21 123 -41 127 -43 3 -2 -39 -72 -95 -154 -126
-186 -126 -186 3 -361 247 -335 327 -412 427 -412 142 1 344 71 450 155 18 15
53 30 77 35 84 16 106 50 91 144 -15 102 1 107 133 46 138 -63 332 -194 417
-280 78 -79 182 -129 255 -122 54 5 31 182 -23 182 -38 0 -69 32 -144 145
-130 198 -391 517 -475 581 -68 52 -68 53 -58 184 l11 131 -84 79 c-112 107
-114 106 -302 -95 -181 -194 -201 -268 -100 -375 48 -52 49 -51 -95 -80 -57
-12 -65 -8 -65 29 0 23 -46 181 -102 352 -122 369 -123 370 -433 443 -118 28
-329 81 -467 118 -341 92 -311 100 -500 -127z m225 6 c33 -71 4 -149 -84 -230
-44 -39 -79 -82 -79 -95 0 -12 -7 -26 -15 -29 -8 -4 -32 -41 -53 -82 -46 -90
-79 -95 -111 -17 -33 79 -20 131 35 138 24 4 39 16 33 26 -13 21 67 138 144
211 24 23 39 48 32 55 -6 7 -1 12 12 12 13 0 22 7 21 15 -10 62 36 60 65 -4z
m173 -15 c14 -19 38 -29 55 -23 16 6 29 0 29 -13 0 -14 13 -19 32 -12 56 21
132 -9 122 -49 -6 -23 4 -39 27 -45 23 -6 39 4 46 29 8 32 5 35 -19 16 -22
-19 -28 -17 -28 9 0 19 16 32 40 32 29 0 40 -13 40 -50 0 -51 30 -69 45 -26 6
19 11 19 23 0 9 -15 -2 -31 -31 -41 l-46 -17 46 -25 c26 -13 52 -19 58 -13 6
7 1 12 -12 12 -12 0 -23 9 -23 20 0 11 15 20 32 20 27 0 28 5 8 30 -14 17 -19
37 -12 45 8 8 21 2 30 -12 9 -14 56 -28 104 -31 103 -5 178 -41 178 -83 0 -17
13 -35 29 -41 16 -7 49 -54 73 -105 25 -51 62 -118 83 -149 22 -31 36 -60 32
-64 -14 -14 -346 92 -378 120 -17 17 -43 30 -56 30 -12 0 -23 21 -23 47 0 39
-9 46 -50 42 -42 -5 -50 3 -51 48 0 47 -3 49 -21 17 -12 -20 -17 -49 -11 -64
7 -18 1 -24 -18 -17 -22 8 -27 32 -20 84 5 40 5 58 -1 39 -6 -19 -23 -29 -39
-23 -18 7 -29 -1 -29 -21 0 -18 -10 -32 -22 -32 -12 0 -17 14 -10 31 14 39
-34 59 -81 33 -86 -49 -264 136 -203 211 14 17 14 25 1 25 -12 0 -26 14 -33
31 -16 42 50 30 84 -15z m-1629 -131 c-17 -41 -68 -147 -112 -235 -44 -88 -91
-214 -103 -280 -21 -113 -92 -192 -92 -101 0 17 -9 31 -20 31 -11 0 -20 -9
-20 -20 0 -11 -44 4 -98 33 -54 29 -112 47 -130 41 -37 -15 -43 -105 -9 -126
32 -20 -37 -68 -97 -68 -25 0 -46 -10 -46 -23 0 -14 27 -19 80 -12 86 12 111
-16 32 -36 -79 -20 -143 -3 -136 36 3 19 -4 35 -15 35 -12 0 -21 11 -21 24 0
13 -31 56 -69 95 -142 147 -74 249 90 135 26 -19 59 -34 73 -34 15 0 26 -9 26
-20 0 -51 36 -12 59 64 13 46 38 104 55 129 17 26 25 62 18 80 -15 39 -37 22
-46 -35 -13 -82 -63 -109 -110 -58 -46 49 -186 119 -241 120 -50 0 -44 14 35
91 39 38 70 82 70 99 0 46 45 36 103 -25 61 -65 192 -146 166 -103 -10 15 -15
48 -12 73 4 30 -5 45 -26 45 -18 0 -31 17 -31 40 0 22 9 40 20 40 11 0 20 -9
20 -20 0 -11 14 -20 30 -20 17 0 30 -9 30 -21 0 -11 18 -40 40 -63 26 -28 35
-58 27 -89 -7 -28 -2 -47 11 -47 12 0 22 14 22 30 0 17 12 30 27 30 15 0 37
20 49 45 12 25 22 34 23 20 1 -30 61 -34 61 -4 0 12 -9 16 -20 9 -11 -7 -20
-3 -20 9 0 32 66 53 75 25 5 -13 17 -24 28 -24 11 0 14 9 7 20 -22 36 30 100
83 100 36 0 48 8 40 29 -13 36 26 51 71 28 31 -16 31 -23 3 -92z m3224 -280
c-3 -19 3 -41 14 -48 11 -7 23 -41 27 -76 4 -35 12 -71 17 -79 5 -9 2 -42 -7
-74 l-17 -58 -20 50 c-23 56 -111 143 -180 178 -58 30 -58 62 1 62 51 0 122
71 102 103 -9 14 0 14 28 -1 22 -12 38 -37 35 -57z m-2981 8 c83 -84 -92 -343
-261 -385 -50 -13 -52 -16 -20 -39 32 -24 31 -28 -17 -60 -29 -18 -52 -43 -52
-54 0 -11 15 -8 34 8 23 18 29 19 19 2 -35 -58 134 -27 195 36 62 62 172 78
172 23 0 -18 13 -22 40 -14 32 10 37 6 26 -24 -11 -29 -8 -32 15 -13 22 18 35
16 55 -5 21 -23 21 -28 0 -29 -14 -1 -8 -9 14 -18 41 -17 51 -138 23 -286 -7
-38 0 -60 23 -73 85 -48 -4 -35 -137 20 -82 33 -167 67 -189 76 -135 51 -312
152 -339 193 -25 38 -43 46 -89 36 -32 -6 -78 1 -105 16 -26 15 -60 27 -77 27
-16 0 -30 15 -30 33 0 19 -20 51 -45 73 -85 73 -23 90 97 26 127 -68 202 -64
225 13 13 47 28 63 51 56 39 -12 247 271 247 336 0 49 84 66 125 26z m610 -32
c0 -11 13 -15 28 -9 15 6 34 1 41 -11 10 -15 25 -15 53 0 53 29 118 5 118 -42
0 -22 7 -39 15 -39 8 0 17 -27 19 -60 3 -41 -5 -60 -25 -60 -16 0 -29 -9 -29
-20 0 -33 -50 -23 -96 20 -24 22 -66 49 -95 60 -28 11 -46 28 -40 38 6 9 -7
22 -28 28 -35 9 -36 16 -15 62 24 51 54 70 54 33z m-4811 -323 c-17 -28 -106
-33 -95 -5 6 15 23 27 38 27 15 0 28 11 28 25 1 17 6 16 19 -4 10 -16 15 -35
10 -43z m6400 40 c-9 -13 4 -20 34 -17 75 8 163 -36 149 -74 -8 -19 3 -46 27
-66 22 -19 35 -41 28 -48 -7 -6 4 -19 25 -26 63 -24 89 -58 63 -84 -12 -12
-15 -29 -6 -38 9 -8 21 -3 26 12 8 22 13 22 25 2 18 -29 80 -12 80 22 0 13
-18 27 -40 33 -22 6 -35 19 -28 29 6 10 19 12 29 6 11 -6 19 -2 19 8 0 36 114
81 140 56 17 -17 20 -4 9 57 -8 44 -22 83 -32 87 -30 12 -18 38 23 49 22 6 40
3 40 -6 0 -9 18 -12 40 -6 96 25 166 -33 153 -127 -29 -208 -182 -360 -459
-458 -177 -62 -184 -60 -192 65 -1 13 -20 20 -43 16 -23 -5 -58 9 -80 31 -21
21 -46 37 -54 34 -8 -3 -24 22 -35 55 -25 76 -72 141 -109 153 -20 7 -8 19 35
38 62 28 85 59 44 59 -11 0 -20 9 -20 19 0 11 16 14 35 7 31 -12 32 -9 8 20
-24 29 -21 39 20 73 54 45 65 50 46 19z m-6693 -53 c-4 -21 -35 -42 -81 -53
-82 -21 -117 -5 -76 33 19 18 28 19 34 2 12 -31 87 -9 87 25 0 16 10 28 21 28
12 0 19 -16 15 -35z m4317 -97 c-42 -28 -80 -47 -86 -42 -15 15 95 94 130 94
18 0 -1 -23 -44 -52z m3414 -36 c-1 -18 6 -32 16 -32 57 0 121 -96 107 -160
-8 -36 -20 -57 -27 -48 -7 10 -65 43 -128 73 -97 46 -113 60 -97 90 32 60 49
114 43 144 -4 23 4 23 42 -3 26 -18 46 -46 44 -64z m-5564 36 c31 -19 -60 -93
-96 -79 -25 9 -30 1 -22 -39 14 -72 -11 -78 -117 -31 -51 23 -104 41 -118 41
-14 0 -30 12 -36 27 -7 18 4 27 33 27 24 0 59 7 78 15 21 9 50 5 70 -11 30
-22 31 -22 10 2 -49 55 121 96 198 48z m-1692 -100 c-7 -38 -22 -64 -32 -57
-10 6 -19 2 -19 -10 0 -27 -96 -66 -122 -50 -11 7 10 50 46 95 118 152 152
157 127 22z m1949 34 c0 -11 27 -25 60 -32 75 -17 65 -34 -61 -102 -167 -92
-116 -147 136 -148 47 0 84 -7 83 -15 -16 -98 50 -194 93 -136 31 41 32 41 65
-19 13 -22 23 -31 23 -19 1 11 30 20 66 20 36 -1 70 5 76 13 19 25 102 -8 91
-36 -6 -15 -2 -32 7 -37 25 -16 13 -71 -19 -91 -21 -13 -23 -28 -7 -64 30 -64
-151 -78 -212 -17 -40 40 -65 35 -47 -11 5 -15 0 -28 -12 -28 -12 0 -22 8 -22
18 0 11 -27 25 -60 32 -33 7 -60 22 -60 33 0 11 -9 14 -20 7 -41 -25 -104 31
-91 82 9 35 4 48 -20 48 -17 0 -26 9 -19 20 7 12 21 15 31 9 11 -6 19 15 19
48 0 43 -9 58 -35 56 -19 -2 -35 11 -35 27 0 18 -32 38 -80 51 -86 22 -112 69
-67 122 14 17 29 54 32 81 9 69 85 147 85 88z m-700 -52 c0 -41 -206 -265
-315 -342 -74 -53 -166 -118 -205 -146 -68 -49 -69 -49 -30 -4 22 25 105 91
184 146 105 73 166 133 227 228 68 105 139 165 139 118z m2177 -136 c16 -20
11 -33 -20 -55 -23 -16 -54 -41 -69 -55 -16 -15 -28 -21 -28 -13 0 8 -12 4
-27 -8 -15 -13 -33 -17 -40 -9 -7 7 -13 3 -13 -9 0 -11 13 -26 29 -32 22 -8
25 -25 11 -72 -11 -39 -10 -61 3 -61 56 0 160 -148 124 -175 -34 -25 -34 -27
8 -38 25 -6 45 -19 45 -28 0 -24 126 -16 151 10 48 47 67 109 57 183 -9 68 -8
73 14 38 45 -72 136 -159 150 -144 29 28 -35 172 -107 243 -58 55 -69 76 -48
89 18 11 20 22 7 30 -12 7 -26 4 -33 -6 -6 -10 -29 -13 -52 -8 -45 12 -41 -69
12 -249 34 -116 2 -113 -134 12 l-105 97 84 105 c46 58 78 115 70 127 -8 14 1
15 26 5 21 -9 61 -21 88 -27 181 -38 349 -178 331 -274 -46 -245 -274 -374
-565 -319 -103 20 -192 30 -199 23 -21 -22 151 -211 188 -205 19 2 62 -12 95
-32 63 -39 230 -51 230 -17 0 38 68 20 124 -34 77 -74 73 -84 -74 -181 -128
-84 -210 -108 -210 -61 0 36 -107 184 -116 159 -8 -26 -66 -6 -99 36 -96 116
-212 292 -215 321 -3 46 -58 99 -104 102 -26 1 -22 7 14 18 48 15 48 16 5 18
-48 2 -61 32 -20 49 29 11 -74 18 -199 13 -97 -3 -126 45 -87 147 12 31 16 65
10 75 -26 41 44 75 118 59 70 -16 132 13 99 46 -7 7 15 13 48 13 104 0 186 24
186 54 0 15 9 23 19 17 10 -7 49 1 85 17 85 37 106 38 133 6z m1180 -49 c12
-30 27 -82 35 -115 7 -33 40 -83 73 -112 l60 -51 -47 -46 c-27 -25 -97 -83
-158 -128 -60 -46 -115 -87 -120 -93 -6 -5 -34 -31 -64 -57 l-53 -47 -49 78
c-27 42 -95 128 -152 189 -157 173 -139 198 64 87 177 -98 208 -94 225 25 15
99 117 325 147 325 9 0 27 -25 39 -55z m-4377 -241 c0 -20 -11 -47 -23 -59
-18 -18 -16 -27 10 -36 18 -8 33 -25 33 -40 0 -14 16 -29 35 -33 28 -5 15 -28
-64 -113 -114 -122 -189 -173 -152 -105 12 23 30 42 40 42 16 0 66 106 70 150
1 11 8 30 16 43 8 12 1 34 -15 47 -36 30 -39 83 -6 116 34 34 56 30 56 -12z
m3860 -211 c0 -35 69 -97 88 -79 8 8 8 0 2 -18 -9 -22 2 -41 30 -56 l44 -24
-57 -59 c-58 -61 -222 -177 -249 -177 -9 0 -14 41 -12 90 1 50 10 90 18 90 9
0 16 10 16 21 0 12 -7 17 -17 11 -9 -6 -16 2 -16 18 0 15 9 26 20 24 11 -2 34
39 51 91 29 87 82 131 82 68z m30 -383 c-78 -65 -171 -116 -185 -101 -7 6 -2
11 9 11 11 0 60 31 108 70 100 79 160 97 68 20z"/>
<path d="M7760 2555 c0 -18 -11 -44 -25 -59 -73 -77 -87 -104 -41 -75 48 30
100 132 79 153 -7 7 -13 -2 -13 -19z"/>
<path d="M681 2263 c-45 -14 -18 -40 34 -33 30 4 80 8 110 9 30 0 55 10 55 21
0 18 -145 21 -199 3z"/>
<path d="M3075 2226 c-30 -5 -55 -17 -55 -27 0 -29 88 -22 131 10 41 31 33 33
-76 17z"/>
<path d="M1409 2182 c6 -10 -3 -29 -19 -42 -50 -42 -33 -64 19 -26 58 42 62
57 20 74 -17 6 -26 4 -20 -6z"/>
<path d="M2080 2025 c0 -34 148 -114 201 -108 126 13 172 41 54 33 -101 -7
-121 -2 -164 41 -48 48 -91 64 -91 34z"/>
<path d="M6440 1669 c0 -7 14 -25 30 -42 17 -16 30 -20 30 -8 0 11 20 22 45
23 43 2 43 3 -5 18 -63 20 -100 23 -100 9z"/>
<path d="M6852 1457 c-20 -23 -39 -53 -41 -65 -3 -12 -19 -53 -36 -92 -32 -70
-28 -111 6 -89 11 6 19 25 19 42 0 17 27 79 59 139 61 111 58 141 -7 65z"/>
<path d="M6560 1464 c0 -24 107 -64 173 -64 70 0 57 33 -18 47 -36 6 -85 17
-110 25 -26 7 -45 4 -45 -8z"/>
<path d="M6237 1400 c-26 -35 -74 -76 -107 -90 l-60 -27 56 -1 c59 -2 113 38
153 115 37 72 10 74 -42 3z"/>
<path d="M292 1302 c-10 -15 18 -22 90 -22 64 0 117 -11 137 -29 18 -16 72
-35 122 -42 66 -9 81 -7 59 9 -16 12 -52 22 -78 22 -27 0 -64 14 -83 31 -43
39 -228 63 -247 31z"/>
<path d="M160 1262 c-55 -10 -62 -16 -33 -27 59 -24 113 -17 113 15 0 17 -2
29 -5 27 -3 -1 -36 -8 -75 -15z"/>
<path d="M2540 1080 c0 -11 34 -20 75 -20 56 1 67 6 45 20 -39 25 -120 25
-120 0z"/>
<path d="M7320 840 c0 -11 -17 -20 -39 -20 -21 0 -50 -12 -65 -26 -14 -15 -52
-44 -84 -64 -31 -21 -47 -42 -34 -46 27 -9 242 130 242 157 0 10 -4 19 -10 19
-5 0 -10 -9 -10 -20z"/>
<path d="M7862 822 c-25 -20 -43 -49 -39 -66 5 -24 19 -18 62 25 63 65 47 93
-23 41z"/>
<path d="M2620 800 c-17 -9 -61 -19 -100 -23 -38 -3 -76 -15 -84 -27 -10 -13
-29 -11 -58 7 -28 17 -48 19 -56 7 -7 -11 -39 -24 -72 -29 -33 -5 17 -7 110
-4 163 5 348 49 308 74 -10 6 -32 4 -48 -5z"/>
<path d="M7652 745 c-8 -8 -66 -20 -129 -27 l-113 -12 103 -3 c56 -2 133 10
170 26 50 22 57 30 25 30 -23 1 -48 -6 -56 -14z"/>
<path d="M8006 670 c-19 -21 -8 -24 60 -15 111 13 137 40 41 41 -43 0 -88 -11
-101 -26z"/>
<path d="M2605 458 c-61 -22 -57 -27 25 -33 39 -3 70 3 70 13 0 28 -46 38 -95
20z"/>
<path d="M6014 391 c44 -60 98 -65 112 -11 11 43 -17 56 -31 15 -7 -18 -20
-16 -49 10 -57 51 -74 43 -32 -14z"/>
<path d="M3740 324 c0 -31 -11 -67 -24 -80 -19 -19 -16 -24 10 -24 26 0 34 18
34 80 0 44 -4 80 -10 80 -5 0 -10 -25 -10 -56z"/>
<path d="M6240 339 c131 -23 265 -23 250 1 -7 11 -86 19 -176 17 -148 -2 -155
-4 -74 -18z"/>
<path d="M6580 312 c-22 -10 -40 -26 -40 -35 0 -22 35 -22 43 -1 14 33 845
-37 921 -78 20 -11 36 -12 36 -3 0 32 -48 65 -95 65 -27 0 -42 9 -35 20 7 11
-6 20 -29 20 -22 0 -41 -7 -41 -16 0 -9 -65 -9 -145 1 -269 32 -574 45 -615
27z"/>
<path d="M7978 308 c-18 -22 -5 -88 17 -88 6 0 21 14 33 30 13 18 58 31 112
33 168 6 177 32 13 40 -100 4 -163 -1 -175 -15z"/>
<path d="M3195 218 c-54 -59 -41 -91 15 -38 49 46 65 82 35 78 -8 -1 -31 -19
-50 -40z"/>
<path d="M8130 220 c-24 -10 37 -13 150 -6 105 6 194 15 198 19 18 15 -310 3
-348 -13z"/>
<path d="M0 202 c0 -28 183 -125 214 -113 46 18 28 47 -39 62 -36 8 -90 26
-120 42 -30 15 -55 20 -55 9z"/>
<path d="M2080 207 c17 -5 50 -20 75 -32 25 -12 51 -15 59 -7 23 22 -38 52
-104 50 -33 -1 -46 -6 -30 -11z"/>
<path d="M2670 139 c-44 -20 -108 -37 -142 -38 -35 0 -78 -18 -98 -41 -42 -47
-21 -51 50 -10 28 16 71 29 97 29 38 1 98 26 181 76 40 24 -25 12 -88 -16z"/>
<path d="M7917 149 c-78 -15 -169 -49 -219 -82 l-86 -57 74 -6 c49 -4 86 5
107 26 38 38 186 101 220 94 23 -5 59 32 44 44 -4 3 -67 -6 -140 -19z"/>
<path d="M6860 70 c-71 -37 -115 -68 -97 -69 18 -1 72 21 120 49 48 27 102 50
121 50 18 0 39 9 46 20 24 40 -63 17 -190 -50z"/>
<path d="M3789 31 c-38 -29 -38 -30 4 -30 23 -1 53 13 67 29 34 41 -17 41 -71
1z"/>
<path d="M4132 42 c-23 -9 1 -14 65 -14 57 0 103 7 103 16 0 20 -116 19 -168
-2z"/>
</g>
</svg>
