<svg xmlns="http://www.w3.org/2000/svg" xmlns:xlink="http://www.w3.org/1999/xlink" width="500" zoomAndPan="magnify" viewBox="0 0 375 374.999991" height="500" preserveAspectRatio="xMidYMid meet" version="1.0"><defs><g/><clipPath id="3c46d0653f"><path d="M 186 154 L 204 154 L 204 171 L 186 171 Z M 186 154 " clip-rule="nonzero"/></clipPath><clipPath id="c67ca41c61"><path d="M 187.089844 153.832031 L 204.335938 154.1875 L 203.996094 170.6875 L 186.75 170.328125 Z M 187.089844 153.832031 " clip-rule="nonzero"/></clipPath><clipPath id="fe529a6371"><path d="M 185.804688 153.804688 L 203.800781 154.179688 L 203.429688 172.175781 L 185.433594 171.800781 Z M 185.804688 153.804688 " clip-rule="nonzero"/></clipPath></defs><rect x="-37.5" width="450" fill="#ffffff" y="-37.499999" height="449.999989" fill-opacity="1"/><rect x="-37.5" width="450" fill="#004d3d" y="-37.499999" height="449.999989" fill-opacity="1"/><g fill="#fff6e7" fill-opacity="1"><g transform="translate(115.031052, 202.874987)"><g><path d="M 15.179688 0 C 16.5 0 17.160156 -0.792969 17.160156 -1.980469 C 17.160156 -2.574219 16.894531 -3.101562 16.433594 -3.433594 C 14.257812 -4.15625 13.597656 -4.949219 13.597656 -7.195312 L 13.597656 -25.738281 L 19.339844 -25.738281 C 20.65625 -25.738281 21.316406 -26.398438 21.316406 -27.71875 C 21.316406 -29.171875 20.527344 -29.699219 19.339844 -29.699219 L 17.292969 -29.699219 C 13.003906 -29.699219 11.746094 -31.285156 11.746094 -35.507812 C 11.746094 -39.007812 12.9375 -41.183594 15.972656 -41.183594 C 18.808594 -41.183594 19.667969 -39.46875 19.667969 -36.828125 C 19.667969 -34.648438 21.054688 -33.660156 23.101562 -33.660156 C 25.675781 -33.660156 26.597656 -35.046875 26.597656 -36.828125 C 26.597656 -42.175781 23.5625 -45.144531 16.699219 -45.144531 C 9.371094 -45.144531 5.742188 -41.382812 5.742188 -34.1875 L 5.742188 -29.699219 L 2.773438 -29.699219 C 1.585938 -29.699219 0.792969 -29.171875 0.792969 -27.71875 C 0.792969 -26.398438 1.320312 -25.738281 2.773438 -25.738281 L 5.742188 -25.738281 L 5.742188 -7.195312 C 5.742188 -4.949219 5.082031 -4.15625 2.839844 -3.433594 C 2.441406 -3.101562 2.179688 -2.574219 2.113281 -1.980469 C 2.113281 -0.792969 2.773438 0 4.15625 0 Z M 15.179688 0 "/></g></g></g><g fill="#fff6e7" fill-opacity="1"><g transform="translate(139.912987, 202.874987)"><g><path d="M 22.835938 -30.03125 C 18.808594 -30.03125 15.445312 -27.71875 13.398438 -23.5625 L 13.398438 -28.246094 C 13.398438 -29.632812 12.671875 -30.292969 11.285156 -30.292969 C 11.023438 -30.292969 10.691406 -30.226562 10.429688 -30.160156 L 3.300781 -28.050781 C 2.574219 -27.785156 1.914062 -27.191406 1.914062 -26.269531 C 1.914062 -25.476562 2.113281 -25.015625 2.773438 -24.617188 C 4.882812 -24.089844 5.476562 -23.296875 5.476562 -21.1875 L 5.476562 -7.195312 C 5.476562 -4.949219 4.816406 -4.15625 2.640625 -3.433594 C 2.179688 -3.101562 1.980469 -2.574219 1.914062 -1.980469 C 1.914062 -0.792969 2.507812 0 3.894531 0 L 14.914062 0 C 16.300781 0 16.894531 -0.792969 16.894531 -1.980469 C 16.894531 -2.574219 16.632812 -3.101562 16.171875 -3.433594 C 13.992188 -4.15625 13.398438 -4.949219 13.332031 -7.195312 L 13.332031 -12.804688 L 13.398438 -12.804688 C 13.398438 -19.800781 17.425781 -23.101562 22.441406 -23.101562 C 24.816406 -23.101562 26.398438 -24.089844 26.398438 -26.53125 C 26.398438 -28.972656 24.949219 -30.03125 22.835938 -30.03125 Z M 22.835938 -30.03125 "/></g></g></g><g fill="#fff6e7" fill-opacity="1"><g transform="translate(164.596916, 202.874987)"><g><path d="M 29.832031 -14.914062 C 29.832031 -24.882812 26.136719 -30.359375 16.234375 -30.359375 C 6.929688 -30.359375 2.507812 -24.882812 2.507812 -14.914062 C 2.507812 -4.949219 7.855469 0.527344 17.953125 0.527344 C 23.296875 0.527344 26.464844 -1.121094 28.511719 -4.15625 C 29.238281 -5.28125 28.972656 -6.335938 27.851562 -6.996094 C 26.929688 -7.523438 25.9375 -7.457031 25.015625 -6.335938 C 23.5625 -4.621094 21.714844 -3.367188 18.679688 -3.367188 C 13.792969 -3.367188 10.957031 -6.269531 10.429688 -12.9375 L 28.117188 -12.9375 C 29.304688 -12.9375 29.832031 -13.660156 29.832031 -14.914062 Z M 16.632812 -26.398438 C 20.59375 -26.398438 22.570312 -23.5625 22.902344 -16.828125 L 10.363281 -16.828125 C 10.625 -23.429688 12.472656 -26.398438 16.632812 -26.398438 Z M 16.632812 -26.398438 "/></g></g></g><g fill="#fff6e7" fill-opacity="1"><g transform="translate(194.560848, 202.874987)"><g><path d="M 14.71875 0.527344 C 23.429688 0.527344 27.125 -2.773438 27.125 -9.175781 C 27.125 -14.125 24.222656 -16.632812 19.140625 -17.359375 L 14.914062 -18.214844 C 12.40625 -18.613281 11.152344 -20.195312 11.152344 -22.242188 C 11.152344 -24.882812 12.472656 -26.398438 15.574219 -26.398438 C 18.414062 -26.398438 19.46875 -24.816406 19.601562 -22.769531 C 19.867188 -21.582031 20.65625 -20.65625 22.636719 -20.65625 C 24.617188 -20.65625 25.609375 -21.714844 25.609375 -23.496094 C 25.609375 -27.457031 22.570312 -30.359375 14.980469 -30.359375 C 6.796875 -30.359375 3.300781 -26.929688 3.300781 -21.121094 C 3.300781 -16.433594 5.875 -13.199219 11.351562 -12.40625 L 15.773438 -11.550781 C 18.019531 -11.152344 19.207031 -9.964844 19.207031 -7.855469 C 19.207031 -4.882812 17.226562 -3.367188 13.992188 -3.367188 C 10.757812 -3.367188 8.84375 -4.753906 8.515625 -7.261719 C 8.183594 -8.515625 7.128906 -9.371094 5.476562 -9.371094 C 3.695312 -9.371094 2.507812 -8.316406 2.507812 -6.335938 C 2.507812 -2.179688 5.941406 0.527344 14.71875 0.527344 Z M 14.71875 0.527344 "/></g></g></g><g fill="#fff6e7" fill-opacity="1"><g transform="translate(221.818784, 202.874987)"><g><path d="M 34.519531 -3.433594 C 32.339844 -4.15625 31.679688 -4.949219 31.679688 -7.324219 L 31.679688 -20.394531 C 31.679688 -26.992188 28.445312 -30.292969 21.910156 -30.292969 C 17.753906 -30.292969 14.652344 -28.644531 12.738281 -25.804688 L 12.738281 -43.097656 C 12.738281 -44.484375 12.144531 -45.144531 10.691406 -45.144531 C 10.429688 -45.144531 10.164062 -45.078125 9.835938 -45.011719 L 2.640625 -42.898438 C 1.980469 -42.636719 1.386719 -42.109375 1.386719 -41.117188 C 1.386719 -40.390625 1.519531 -39.863281 2.113281 -39.46875 C 4.289062 -38.941406 4.882812 -38.148438 4.882812 -36.035156 L 4.882812 -7.195312 C 4.882812 -4.949219 4.289062 -4.15625 2.113281 -3.433594 C 1.585938 -3.101562 1.386719 -2.574219 1.386719 -1.980469 C 1.386719 -0.792969 1.980469 0 3.300781 0 L 14.320312 0 C 15.707031 0 16.300781 -0.792969 16.300781 -1.980469 C 16.300781 -2.574219 16.039062 -3.101562 15.574219 -3.433594 C 13.398438 -4.15625 12.738281 -4.949219 12.738281 -7.195312 L 12.738281 -17.820312 C 12.738281 -23.230469 15.246094 -26.335938 19.140625 -26.335938 C 22.570312 -26.335938 23.824219 -24.484375 23.824219 -21.515625 L 23.824219 -2.113281 C 23.824219 -0.925781 24.75 0 25.871094 0 L 33.265625 0 C 34.648438 0 35.242188 -0.792969 35.242188 -1.980469 C 35.242188 -2.574219 34.980469 -3.101562 34.519531 -3.433594 Z M 34.519531 -3.433594 "/></g></g></g><g clip-path="url(#3c46d0653f)"><g clip-path="url(#c67ca41c61)"><g clip-path="url(#fe529a6371)"><path fill="#86b649" d="M 203.511719 154.316406 C 203.390625 154.304688 203.265625 154.304688 203.144531 154.292969 C 202.234375 154.214844 201.328125 154.128906 200.414062 154.152344 C 199.882812 154.167969 199.351562 154.167969 198.820312 154.191406 C 198.511719 154.207031 198.195312 154.234375 197.890625 154.296875 C 197.050781 154.472656 196.222656 154.679688 195.410156 154.976562 C 194.507812 155.304688 193.644531 155.710938 192.84375 156.226562 C 191.878906 156.851562 190.988281 157.566406 190.261719 158.46875 C 189.679688 159.195312 189.109375 159.917969 188.675781 160.746094 C 188.507812 161.070312 188.375 161.414062 188.230469 161.753906 C 187.949219 162.40625 187.703125 163.066406 187.523438 163.757812 C 187.351562 164.417969 187.183594 165.074219 187.085938 165.75 C 186.988281 166.4375 186.863281 167.125 186.796875 167.8125 C 186.757812 168.242188 186.738281 168.683594 186.820312 169.117188 C 186.917969 169.632812 186.910156 169.632812 186.574219 170.035156 C 186.554688 170.054688 186.539062 170.074219 186.519531 170.097656 C 186.070312 170.582031 185.792969 171.179688 185.464844 171.746094 C 185.441406 171.78125 185.46875 171.847656 185.476562 172 C 185.984375 171.191406 186.402344 170.441406 187.074219 169.792969 C 187.222656 170.039062 187.449219 170.085938 187.675781 170.152344 C 188.058594 170.261719 188.4375 170.34375 188.839844 170.304688 C 188.972656 170.292969 189.113281 170.324219 189.246094 170.332031 C 189.996094 170.359375 190.738281 170.433594 191.492188 170.394531 C 192.070312 170.363281 192.621094 170.210938 193.1875 170.132812 C 193.894531 170.039062 194.558594 169.789062 195.21875 169.53125 C 195.546875 169.402344 195.859375 169.226562 196.160156 169.046875 C 196.5 168.84375 196.820312 168.609375 197.144531 168.386719 C 197.984375 167.816406 198.75 167.171875 199.417969 166.40625 C 199.792969 165.972656 200.15625 165.53125 200.441406 165.03125 C 200.667969 164.628906 200.894531 164.222656 201.113281 163.8125 C 201.6875 162.757812 202.148438 161.652344 202.496094 160.5 C 202.789062 159.523438 203.058594 158.535156 203.335938 157.554688 C 203.488281 157 203.644531 156.453125 203.78125 155.894531 C 203.867188 155.566406 203.933594 155.230469 203.980469 154.894531 C 204.03125 154.539062 203.859375 154.347656 203.511719 154.316406 Z M 203.511719 154.316406 " fill-opacity="1" fill-rule="nonzero"/></g></g></g></svg>