<svg width="25" height="25" viewBox="0 0 25 25" fill="none" xmlns="http://www.w3.org/2000/svg">
<path opacity="0.4" d="M16.6898 2.59113H8.31978C4.67978 2.59113 2.50977 4.76112 2.50977 8.40112V16.7711C2.50977 20.4111 4.67978 22.5811 8.31978 22.5811H16.6898C20.3298 22.5811 22.4998 20.4111 22.4998 16.7711V8.40112C22.4998 4.76112 20.3298 2.59113 16.6898 2.59113Z" fill="#596C5D"/>
<path d="M13.5201 13.1811H11.0901C10.6801 13.1811 10.3401 13.5211 10.3401 13.9311C10.3401 14.3411 10.6801 14.6811 11.0901 14.6811H15.3301C15.4301 14.6811 15.5201 14.6611 15.6201 14.6211C15.8001 14.5411 15.9501 14.4011 16.0301 14.2111C16.0701 14.1211 16.0901 14.0211 16.0901 13.9211V9.69112C16.0901 9.28112 15.7501 8.94112 15.3401 8.94112C14.9301 8.94112 14.5901 9.28112 14.5901 9.69112V12.1211L10.2101 7.74112C9.92013 7.45112 9.44012 7.45112 9.15012 7.74112C8.86012 8.03112 8.86012 8.51112 9.15012 8.80112L13.5201 13.1811Z" fill="#4AFD71"/>
<path d="M19.2097 16.8711C19.0797 16.4811 18.6597 16.2711 18.2597 16.4011C14.5397 17.6411 10.4497 17.6411 6.72969 16.4011C6.33969 16.2711 5.90969 16.4811 5.77969 16.8711C5.64969 17.2611 5.85969 17.6911 6.24969 17.8211C8.25969 18.4911 10.3697 18.8311 12.4897 18.8311C14.6097 18.8311 16.7197 18.4911 18.7297 17.8211C19.1297 17.6811 19.3397 17.2611 19.2097 16.8711Z" fill="#4AFD71"/>
</svg>
